SplineFontDB: 3.0
FontName: Renner*-BookItalic
FullName: Renner* Book Italic
FamilyName: Renner*
Weight: Book
Copyright: This typeface is licensed under the SIL open font license.
UComments: "2015-9-7: Created with FontForge (http://fontforge.org)"
FontLog: "This is version 1. Font is original (not based on another digital typeface). Inspiration was taken from the American Type Founders +ACIA-Spartan+ACIA, but Renner* is not identical. No updates have been made yet."
Version: 001.000
ItalicAngle: -8
UnderlinePosition: -300
UnderlineWidth: 50
Ascent: 800
Descent: 200
InvalidEm: 0
LayerCount: 2
Layer: 0 0 "Back" 1
Layer: 1 0 "Fore" 0
XUID: [1021 266 -223186452 810138]
FSType: 0
OS2Version: 0
OS2_WeightWidthSlopeOnly: 0
OS2_UseTypoMetrics: 0
CreationTime: 1441634143
ModificationTime: 1452975929
PfmFamily: 17
TTFWeight: 400
TTFWidth: 5
LineGap: 100
VLineGap: 0
OS2TypoAscent: 800
OS2TypoAOffset: 0
OS2TypoDescent: -200
OS2TypoDOffset: 0
OS2TypoLinegap: 100
OS2WinAscent: 900
OS2WinAOffset: 0
OS2WinDescent: 300
OS2WinDOffset: 0
HheadAscent: 900
HheadAOffset: 0
HheadDescent: -200
HheadDOffset: 0
OS2SubXSize: 650
OS2SubYSize: 666
OS2SubXOff: 0
OS2SubYOff: 200
OS2SupXSize: 650
OS2SupYSize: 666
OS2SupXOff: 0
OS2SupYOff: 390
OS2StrikeYSize: 49
OS2StrikeYPos: 258
OS2CapHeight: 730
OS2XHeight: 526
OS2Vendor: 'PfEd'
Lookup: 258 0 0 "Pairwise Positioning (kerning) in Latin lookup 0" { "Pairwise Positioning (kerning) in Latin lookup 0-1" [140,0,2] } ['kern' ('DFLT' <'dflt' > 'latn' <'dflt' > ) ]
MarkAttachClasses: 1
DEI: 91125
KernClass2: 11 13 "Pairwise Positioning (kerning) in Latin lookup 0-1"
 5 A M L
 7 D O Q G
 7 F V Y W
 7 b e o p
 3 K X
 1 T
 19 a c g h i j m n q u
 3 k x
 7 r v y w
 1 s
 3 A M
 7 C G O Q
 1 T
 3 V W
 3 X Y
 13 c d e g o q a
 3 i j
 11 m n p r u z
 1 s
 5 v w y
 1 x
 1 U

StartChar: I
Encoding: 73 73 0
Width: 238
VWidth: 0
Flags: W
HStem: 0 21G<76 164.822> 710 20G<176.178 265>
VStem: 76 189
DStem2: 76 0 162 0 0.139712 0.990192<12.0152 737.231>
LayerCount: 2
Fore
SplineSet
76 0 m 1
 179 730 l 1
 265 730 l 5
 162 0 l 5
 76 0 l 1
EndSplineSet
EndChar

StartChar: t
Encoding: 116 116 1
Width: 293
VWidth: 0
Flags: HW
LayerCount: 2
Fore
SplineSet
72 444 m 5
 83 526 l 1
 352 526 l 1
 341 444 l 5
 72 444 l 5
100 0 m 1
 199 699 l 1
 286 699 l 1
 188 0 l 1
 100 0 l 1
EndSplineSet
EndChar

StartChar: l
Encoding: 108 108 2
Width: 261
VWidth: 0
Flags: HW
LayerCount: 2
Fore
SplineSet
66 0 m 1
 192 894 l 5
 279 894 l 5
 154 0 l 1
 66 0 l 1
EndSplineSet
EndChar

StartChar: i
Encoding: 105 105 3
Width: 300
VWidth: 0
Flags: HW
LayerCount: 2
Fore
SplineSet
166 711 m 0xf0
 171 746 203 773 238 773 c 0
 273 773 297 746 292 711 c 0
 287 676 255 647 220 647 c 0
 185 647 161 676 166 711 c 0xf0
86 0 m 1xe8
 160 526 l 5
 246 526 l 5
 172 0 l 1
 86 0 l 1xe8
EndSplineSet
EndChar

StartChar: o
Encoding: 111 111 4
Width: 625
VWidth: 0
Flags: W
HStem: -12 82<232.224 400.461> 456 82<280.266 448.531>
LayerCount: 2
Fore
SplineSet
152 263 m 0
 138 160 208 70 313 70 c 4
 418 70 513 160 527 263 c 0
 541 366 473 456 368 456 c 0
 263 456 166 366 152 263 c 0
65 263 m 0
 86 415 227 538 379 538 c 0
 531 538 636 415 615 263 c 0
 594 111 454 -12 302 -12 c 0
 150 -12 44 111 65 263 c 0
EndSplineSet
EndChar

StartChar: H
Encoding: 72 72 6
Width: 698
VWidth: 0
Flags: HW
LayerCount: 2
Fore
SplineSet
204 333 m 5xec
 215 414 l 1
 594 414 l 1
 583 333 l 5
 204 333 l 5xec
536 0 m 1
 639 730 l 1
 725 730 l 1
 622 0 l 1
 536 0 l 1
76 0 m 1xf4
 179 730 l 1
 265 730 l 1
 162 0 l 1
 76 0 l 1xf4
EndSplineSet
EndChar

StartChar: E
Encoding: 69 69 7
Width: 574
VWidth: 0
Flags: W
HStem: 0 81<159 526> 333 81<206 465> 649 81<239 250 255 618>
DStem2: 66 0 148 0 0.139712 0.990192<11.4564 93.1988 347.617 429.499 666.805 737.231>
LayerCount: 2
Fore
SplineSet
148 0 m 1
 159 81 l 1
 538 81 l 1
 526 0 l 1
 148 0 l 1
239 649 m 1
 250 730 l 1
 629 730 l 1
 618 649 l 1
 239 649 l 1
194 333 m 1
 206 414 l 1
 477 414 l 1
 465 333 l 1
 194 333 l 1
66 0 m 1
 169 730 l 1
 255 730 l 5
 152 0 l 5
 66 0 l 1
EndSplineSet
EndChar

StartChar: F
Encoding: 70 70 8
Width: 574
VWidth: 0
Flags: HW
LayerCount: 2
Fore
SplineSet
239 649 m 1xe8
 250 730 l 1
 629 730 l 1
 618 649 l 1
 239 649 l 1xe8
194 333 m 1
 206 414 l 1
 477 414 l 1
 465 333 l 1
 194 333 l 1
66 0 m 1xf0
 169 730 l 1xf0
 255 730 l 1xe8
 152 0 l 1
 66 0 l 1xf0
EndSplineSet
EndChar

StartChar: M
Encoding: 77 77 9
Width: 831
VWidth: 0
Flags: HW
LayerCount: 2
Fore
SplineSet
412 -25 m 1
 251 591 l 1
 300 759 l 1
 461 104 l 1
 412 -25 l 1
10 2 m 1
 300 759 l 1
 329 608 l 1
 101 2 l 1
 10 2 l 1
731 2 m 1
 748 591 l 1
 822 759 l 1
 822 2 l 1
 731 2 l 1
401 107 m 1
 822 759 l 1
 815 608 l 5
 412 -25 l 1
 401 107 l 1
EndSplineSet
EndChar

StartChar: N
Encoding: 78 78 10
Width: 752
VWidth: 0
Flags: W
HStem: 0 21G<76 164.813 656.263 678.822> 730 7G<176.178 198.737 690.187 779>
VStem: 76 86<0 49.6117> 693 86<680.388 730>
LayerCount: 2
Fore
SplineSet
672 -27 m 1
 164 628 l 1
 182 757 l 1
 690 102 l 5
 672 -27 l 1
601 76 m 1
 693 730 l 1
 779 730 l 1
 676 0 l 1
 601 76 l 1
76 0 m 1
 179 730 l 1
 254 654 l 1
 162 0 l 1
 76 0 l 1
EndSplineSet
EndChar

StartChar: O
Encoding: 79 79 11
Width: 810
VWidth: 0
Flags: W
HStem: -11 86<311.763 526.504> 656 86<387.373 602.134>
LayerCount: 2
Fore
SplineSet
172 366 m 0
 149 201 253 75 416 75 c 4
 579 75 718 201 741 366 c 0
 764 531 661 656 498 656 c 0
 335 656 195 531 172 366 c 0
80 366 m 0
 109 574 302 742 510 742 c 0
 718 742 862 574 833 366 c 0
 804 158 612 -11 404 -11 c 0
 196 -11 51 158 80 366 c 0
EndSplineSet
EndChar

StartChar: T
Encoding: 84 84 12
Width: 592
VWidth: 0
Flags: HW
LayerCount: 2
Fore
SplineSet
101 649 m 1xd0
 112 730 l 1
 685 730 l 5
 674 649 l 5
 101 649 l 1xd0
252 0 m 1
 344 654 l 1
 431 654 l 5xb0
 340 0 l 5
 252 0 l 1
EndSplineSet
EndChar

StartChar: A
Encoding: 65 65 13
Width: 638
VWidth: 0
Flags: W
HStem: 0 21G<10 110.943 530.71 628> 224 81<187 525> 737 20G<414.036 430.363>
LayerCount: 2
Fore
SplineSet
10 0 m 1
 425 757 l 5
 448 636 l 5
 100 0 l 1
 10 0 l 1
176 224 m 1
 187 305 l 1
 536 305 l 1
 525 224 l 1
 176 224 l 1
536 0 m 1
 367 639 l 5
 425 757 l 5
 628 0 l 1
 536 0 l 1
EndSplineSet
EndChar

StartChar: c
Encoding: 99 99 14
Width: 535
VWidth: 0
Flags: W
HStem: -12 82<237.224 428.415> 456 82<284.872 476.707>
LayerCount: 2
Fore
SplineSet
157 263 m 0
 143 160 213 70 318 70 c 4
 374 70 434 86 480 122 c 5
 467 25 l 1
 417 1 361 -12 307 -12 c 0
 155 -12 49 111 70 263 c 0
 91 415 232 538 384 538 c 0
 438 538 490 525 534 501 c 1
 520 404 l 1
 484 440 428 456 372 456 c 0
 267 456 171 366 157 263 c 0
EndSplineSet
EndChar

StartChar: C
Encoding: 67 67 15
Width: 680
VWidth: 0
Flags: W
HStem: -11 86<311.763 535.588> 656 86<387.373 619.146>
LayerCount: 2
Fore
SplineSet
172 366 m 4
 149 201 253 75 416 75 c 0
 493 75 570 98 633 142 c 1
 620 47 l 1
 552 10 478 -11 404 -11 c 0
 196 -11 51 158 80 366 c 0
 109 574 302 742 510 742 c 0
 584 742 652 721 710 684 c 1
 696 589 l 1
 645 633 575 656 498 656 c 0
 335 656 195 531 172 366 c 4
EndSplineSet
EndChar

StartChar: G
Encoding: 71 71 16
Width: 818
VWidth: 0
Flags: HW
LayerCount: 2
Fore
SplineSet
475 305 m 1
 487 386 l 1
 814 386 l 1
 802 305 l 1
 475 305 l 1
172 366 m 0
 149 201 253 75 416 75 c 0
 579 75 708 201 731 366 c 0
 732 372 732 380 733 386 c 5
 825 386 l 5
 824 380 823 372 822 366 c 0
 793 158 612 -11 404 -11 c 0
 196 -11 51 158 80 366 c 0
 109 574 302 742 510 742 c 0
 610 742 695 703 753 639 c 1
 684 579 l 1
 640 627 575 656 498 656 c 0
 335 656 195 531 172 366 c 0
EndSplineSet
EndChar

StartChar: J
Encoding: 74 74 17
Width: 512
VWidth: 0
Flags: HW
LayerCount: 2
Fore
SplineSet
384 238 m 1
 453 730 l 1
 539 730 l 1
 470 238 l 1
 384 238 l 1
384 238 m 1
 470 238 l 1
 451 101 361 -11 197 -11 c 0
 69 -11 5 54 -10 134 c 1
 64 175 l 5
 81 119 105 70 208 70 c 0
 330 70 371 145 384 238 c 1
EndSplineSet
EndChar

StartChar: b
Encoding: 98 98 18
Width: 678
VWidth: 0
Flags: HW
LayerCount: 2
Fore
SplineSet
66 0 m 1x7a
 192 894 l 5
 279 894 l 5x7a
 154 0 l 1x76
 66 0 l 1x7a
190 263 m 0
 176 160 245 70 350 70 c 0xba
 455 70 549 160 563 263 c 0
 577 366 510 456 405 456 c 0
 300 456 204 366 190 263 c 0
147 263 m 0xb6
 164 385 264 538 436 538 c 0
 568 538 671 415 650 263 c 0
 629 111 491 -12 359 -12 c 0
 187 -12 130 141 147 263 c 0xb6
EndSplineSet
EndChar

StartChar: u
Encoding: 117 117 19
Width: 662
VWidth: 0
Flags: W
HStem: -12 82<225.36 366.419> 0 21G<466 556.814> 506 20G<137.214 227 537.186 628>
DStem2: 57.0897 -12 144.09 -12 0.173648 0.984808<165.423 544.224> 466 0 554 0 0.139313 0.990248<271.58 531.18>
LayerCount: 2
Fore
SplineSet
628 526 m 1x60
 554 0 l 1
 466 0 l 1
 540 526 l 1
 628 526 l 1x60
182 203 m 1
 95 203 l 1
 140 526 l 1
 227 526 l 1
 182 203 l 1
182 203 m 1
 172 130 215 70 302 70 c 0
 407 70 489 160 503 263 c 1
 546 263 l 1
 533 171 443 -12 271 -12 c 0xa0
 157 -12 76 69 95 203 c 1
 182 203 l 1
EndSplineSet
EndChar

StartChar: d
Encoding: 100 100 20
Width: 678
VWidth: 0
Flags: HW
LayerCount: 2
Fore
SplineSet
530 263 m 4xba
 544 366 475 456 370 456 c 4
 265 456 171 366 157 263 c 4
 143 160 211 70 316 70 c 4
 421 70 516 160 530 263 c 4xba
573 263 m 4
 556 141 457 -12 285 -12 c 4
 153 -12 49 111 70 263 c 4
 91 415 230 538 362 538 c 4
 534 538 590 385 573 263 c 4
580 0 m 5x7c
 492 0 l 5
 618 894 l 5
 706 894 l 5
 580 0 l 5x7c
EndSplineSet
EndChar

StartChar: e
Encoding: 101 101 21
Width: 625
VWidth: 0
Flags: W
HStem: -12 82<237.224 419.626> 239 74<129 156 157 552> 239 24<70 156> 456 82<284.872 451.471>
LayerCount: 2
Fore
SplineSet
157 263 m 1xb0
 143 160 213 70 318 70 c 4
 382 70 451 92 499 138 c 5
 535 75 l 1
 470 22 386 -12 307 -12 c 0
 155 -12 49 111 70 263 c 1
 157 263 l 1xb0
70 263 m 0
 91 415 232 538 384 538 c 0
 536 538 629 415 608 263 c 0
 607 255 606 247 604 239 c 1xb0
 516 239 l 1xd0
 518 247 519 255 520 263 c 0
 534 366 477 456 372 456 c 0
 267 456 171 366 157 263 c 0xb0
 156 255 156 247 156 239 c 1xd0
 68 239 l 1
 68 247 69 255 70 263 c 0
119 239 m 1
 129 313 l 1
 562 313 l 1
 552 239 l 1xd0
 119 239 l 1
EndSplineSet
EndChar

StartChar: a
Encoding: 97 97 22
Width: 678
VWidth: 0
Flags: W
HStem: -12 82<235.223 389.533> 0 21G<492 582.814> 456 82<281.471 452.791> 506 20G<563.186 654>
DStem2: 492 0 580 0 0.139313 0.990248<271.72 531.18>
LayerCount: 2
Fore
SplineSet
530 263 m 0xa0
 544 366 475 456 370 456 c 0
 265 456 171 366 157 263 c 0
 143 160 211 70 316 70 c 0
 421 70 516 160 530 263 c 0xa0
573 263 m 0
 556 141 457 -12 285 -12 c 0
 153 -12 49 111 70 263 c 0
 91 415 230 538 362 538 c 0
 534 538 590 385 573 263 c 0
580 0 m 1x50
 492 0 l 1
 566 526 l 1
 654 526 l 1
 580 0 l 1x50
EndSplineSet
EndChar

StartChar: h
Encoding: 104 104 23
Width: 662
VWidth: 0
Flags: HW
LayerCount: 2
Fore
SplineSet
512 323 m 1xc8
 600 323 l 1
 554 0 l 1
 466 0 l 1
 512 323 l 1xc8
66 0 m 1xe8
 199 944 l 1
 286 944 l 1
 154 0 l 1
 66 0 l 1xe8
512 323 m 1
 522 396 480 456 393 456 c 4
 288 456 204 366 190 263 c 1xe8
 147 263 l 1xd8
 164 385 252 538 404 538 c 0
 538 538 619 457 600 323 c 1
 512 323 l 1
EndSplineSet
EndChar

StartChar: m
Encoding: 109 109 24
Width: 943
VWidth: 0
Flags: HW
LayerCount: 2
Fore
SplineSet
793 323 m 1xc080
 881 323 l 1
 836 0 l 1
 748 0 l 1
 793 323 l 1xc080
793 323 m 1
 803 396 776 456 703 456 c 0
 612 456 545 366 531 263 c 1xe280
 464 263 l 1
 477 355 567 538 724 538 c 4xe180
 824 538 900 457 881 323 c 1
 793 323 l 1
66 0 m 1xd880
 140 526 l 1
 227 526 l 1
 154 0 l 1
 66 0 l 1xd880
452 323 m 1xc280
 540 323 l 1
 494 0 l 1
 406 0 l 1
 452 323 l 1xc280
452 323 m 1
 462 396 436 456 363 456 c 0
 272 456 204 366 190 263 c 1xea80
 147 263 l 1
 160 355 227 538 384 538 c 4xe480
 484 538 559 457 540 323 c 1
 452 323 l 1
EndSplineSet
EndChar

StartChar: n
Encoding: 110 110 25
Width: 662
VWidth: 0
Flags: W
HStem: 0 21G<66 156.814 466 556.848> 456 82<328.401 469.493> 506 20G<137.186 228>
LayerCount: 2
Fore
SplineSet
66 0 m 1xa0
 140 526 l 1
 228 526 l 1
 154 0 l 1
 66 0 l 1xa0
512 323 m 1
 600 323 l 1
 554 0 l 1
 466 0 l 1
 512 323 l 1
512 323 m 1
 522 396 480 456 393 456 c 0
 288 456 204 366 190 263 c 1
 147 263 l 5
 161 365 252 538 424 538 c 4xc0
 538 538 619 457 600 323 c 1
 512 323 l 1
EndSplineSet
EndChar

StartChar: y
Encoding: 121 121 26
Width: 507
VWidth: 0
Flags: W
HStem: 506 20G<74 177.721 474.143 581>
LayerCount: 2
Fore
SplineSet
4 -287 m 1
 486 526 l 1
 581 526 l 1
 99 -287 l 1
 4 -287 l 1
210 48 m 1
 74 526 l 1
 172 526 l 5
 299 82 l 5
 210 48 l 1
EndSplineSet
EndChar

StartChar: q
Encoding: 113 113 27
Width: 672
VWidth: 0
Flags: HW
LayerCount: 2
Fore
SplineSet
568 263 m 0xd4
 551 141 452 -12 280 -12 c 0
 148 -12 44 111 65 263 c 0
 86 415 225 538 357 538 c 0
 529 538 585 385 568 263 c 0xd4
649 526 m 1xb8
 537 -275 l 5
 449 -275 l 5
 561 526 l 1
 649 526 l 1xb8
524 263 m 0
 538 366 471 456 366 456 c 0xd8
 261 456 165 366 151 263 c 0
 137 160 206 70 311 70 c 0
 416 70 510 160 524 263 c 0
EndSplineSet
EndChar

StartChar: p
Encoding: 112 112 28
Width: 672
VWidth: 0
Flags: HW
LayerCount: 2
Fore
SplineSet
147 263 m 0xcc
 164 385 264 538 436 538 c 0
 568 538 671 415 650 263 c 0
 629 111 491 -12 359 -12 c 0
 187 -12 130 141 147 263 c 0xcc
140 526 m 1xb4
 227 526 l 1
 115 -275 l 5
 28 -275 l 5
 140 526 l 1xb4
190 263 m 0
 176 160 245 70 350 70 c 0
 455 70 550 160 564 263 c 0
 578 366 510 456 405 456 c 0xd4
 300 456 204 366 190 263 c 0
EndSplineSet
EndChar

StartChar: j
Encoding: 106 106 29
Width: 271
VWidth: 0
Flags: HW
LayerCount: 2
Fore
SplineSet
-5 -205 m 5xf0
 -17 -287 l 5
 -83 -287 -107 -250 -107 -250 c 5
 -96 -170 l 5
 -96 -170 -61 -205 -5 -205 c 5xf0
-5 -205 m 5
 52 -205 79 -169 89 -96 c 5
 175 -96 l 5xf4
 156 -230 87 -287 -17 -287 c 5
 -5 -205 l 5
184 711 m 4xf8
 189 746 219 773 254 773 c 4
 289 773 313 746 308 711 c 4
 303 676 272 649 237 649 c 4
 202 649 179 676 184 711 c 4xf8
89 -96 m 5xf4
 177 526 l 5
 263 526 l 5
 175 -96 l 5
 89 -96 l 5xf4
EndSplineSet
EndChar

StartChar: L
Encoding: 76 76 30
Width: 536
VWidth: 0
Flags: HW
LayerCount: 2
Fore
SplineSet
148 0 m 1xd0
 159 81 l 5
 538 81 l 5
 526 0 l 1
 148 0 l 1xd0
66 0 m 1xe0
 169 730 l 1
 255 730 l 1xe0
 152 0 l 1xd0
 66 0 l 1xe0
EndSplineSet
EndChar

StartChar: D
Encoding: 68 68 31
Width: 705
VWidth: 0
Flags: HW
LayerCount: 2
Fore
SplineSet
250 730 m 1xd8
 394 730 l 1
 382 644 l 1xe8
 238 644 l 1
 250 730 l 1xd8
148 0 m 1xd8
 160 86 l 1xd8
 304 86 l 1
 292 0 l 1xe8
 148 0 l 1xd8
66 0 m 1xe8
 169 730 l 1xe8
 255 730 l 1
 152 0 l 1xd8
 66 0 l 1xe8
382 644 m 1
 394 730 l 1
 602 730 748 574 719 366 c 0
 690 158 500 0 292 0 c 1
 304 86 l 1
 467 86 605 201 628 366 c 4
 651 531 545 644 382 644 c 1
EndSplineSet
EndChar

StartChar: R
Encoding: 82 82 32
Width: 591
VWidth: 0
Flags: HW
LayerCount: 2
Fore
SplineSet
402 730 m 1xd1
 540 730 618 640 599 502 c 0
 580 364 475 269 337 269 c 1
 349 350 l 1
 440 350 500 406 513 502 c 0
 526 598 482 649 391 649 c 1
 402 730 l 1xd1
169 269 m 1xd5
 181 350 l 1
 349 350 l 1
 337 269 l 1
 169 269 l 1xd5
66 0 m 1x99
 169 730 l 1x99
 255 730 l 1x93
 152 0 l 1
 66 0 l 1x99
239 649 m 1x93
 250 730 l 1
 402 730 l 1
 391 649 l 1
 239 649 l 1x93
454 0 m 1
 275 324 l 1
 374 324 l 1xb1
 554 0 l 1
 454 0 l 1
EndSplineSet
EndChar

StartChar: V
Encoding: 86 86 33
Width: 638
VWidth: 0
Flags: HW
LayerCount: 2
Fore
SplineSet
731 730 m 1
 315 -27 l 5
 293 94 l 5
 639 730 l 1
 731 730 l 1
203 730 m 1
 372 91 l 5
 315 -27 l 5
 112 730 l 1
 203 730 l 1
EndSplineSet
EndChar

StartChar: f
Encoding: 102 102 34
Width: 365
VWidth: 0
Flags: HW
LayerCount: 2
Fore
SplineSet
81 444 m 5
 93 526 l 5
 422 526 l 5
 410 444 l 5
 81 444 l 5
110 0 m 1
 210 715 l 1
 297 715 l 1
 197 0 l 1
 110 0 l 1
392 825 m 1
 403 906 l 1
 469 906 494 870 494 870 c 1
 483 790 l 1
 483 790 448 825 392 825 c 1
392 825 m 1
 335 825 307 788 297 715 c 1
 210 715 l 1
 229 849 299 906 403 906 c 1
 392 825 l 1
EndSplineSet
EndChar

StartChar: r
Encoding: 114 114 35
Width: 417
VWidth: 0
Flags: HW
LayerCount: 2
Fore
SplineSet
465 489 m 5xc8
 429 413 l 5
 429 413 414 456 337 456 c 0
 256 456 208 390 194 287 c 1xd0
 168 287 l 1
 185 409 220 538 348 538 c 0
 454 538 465 489 465 489 c 5xc8
227 526 m 1xb0
 154 0 l 1
 66 0 l 1
 140 526 l 1
 227 526 l 1xb0
EndSplineSet
EndChar

StartChar: g
Encoding: 103 103 36
Width: 650
VWidth: 0
Flags: HW
LayerCount: 2
Fore
SplineSet
464 -12 m 1xd3
 552 -12 l 1
 531 -164 433 -287 251 -287 c 4
 110 -287 39 -216 23 -127 c 1
 100 -87 l 1
 118 -149 150 -205 263 -205 c 0
 398 -205 450 -115 464 -12 c 1xd3
552 -12 m 1
 464 -12 l 1
 539 526 l 1
 627 526 l 1xd7
 552 -12 l 1
505 281 m 0
 519 384 461 456 356 456 c 0x9b
 251 456 170 384 156 281 c 0
 142 178 201 106 306 106 c 0
 411 106 491 178 505 281 c 0
549 281 m 0x9a80
 530 149 447 24 275 24 c 0
 143 24 47 129 68 281 c 0
 89 433 215 538 347 538 c 0
 519 538 568 413 549 281 c 0x9a80
EndSplineSet
EndChar

StartChar: period
Encoding: 46 46 37
Width: 224
VWidth: 0
Flags: HW
LayerCount: 2
Fore
SplineSet
57 51 m 4
 62 86 93 113 128 113 c 4
 163 113 186 86 181 51 c 4
 176 16 145 -11 110 -11 c 4
 75 -11 52 16 57 51 c 4
EndSplineSet
EndChar

StartChar: s
Encoding: 115 115 38
Width: 493
VWidth: 0
Flags: HW
LayerCount: 2
Fore
SplineSet
107 388 m 1
 120 480 215 538 331 538 c 0
 421 538 496 477 496 477 c 1
 456 407 l 1
 456 407 394 460 314 460 c 0
 251 460 202 429 197 392 c 1
 107 388 l 1
468 155 m 1
 452 39 364 -12 248 -12 c 0
 110 -12 40 84 40 84 c 1
 101 148 l 1
 101 148 155 69 253 69 c 0
 331 69 374 90 382 150 c 5
 468 155 l 1
271 239 m 0
 197 252 92 282 107 388 c 1
 197 392 l 1
 190 344 237 327 301 313 c 0
 383 295 484 266 468 155 c 1
 382 150 l 5
 389 203 334 228 271 239 c 0
EndSplineSet
EndChar

StartChar: k
Encoding: 107 107 39
Width: 520
VWidth: 0
Flags: HW
LayerCount: 2
Fore
SplineSet
370 0 m 1
 148 287 l 1
 277 287 l 1
 500 0 l 1
 370 0 l 1
160 287 m 1
 433 526 l 1
 549 526 l 1
 277 287 l 1
 160 287 l 1
66 0 m 1
 192 894 l 5
 279 894 l 5
 154 0 l 1
 66 0 l 1
EndSplineSet
EndChar

StartChar: v
Encoding: 118 118 40
Width: 519
VWidth: 0
Flags: HW
LayerCount: 2
Fore
SplineSet
256 -25 m 5
 250 129 l 5
 258 129 l 5
 490 526 l 1
 589 526 l 1
 256 -25 l 5
256 -25 m 5
 79 526 l 1
 177 526 l 1
 297 132 l 5
 305 132 l 5
 256 -25 l 5
EndSplineSet
EndChar

StartChar: w
Encoding: 119 119 41
Width: 795
VWidth: 0
Flags: HW
LayerCount: 2
Fore
SplineSet
564 -25 m 1
 556 117 l 1
 550 117 l 1
 754 526 l 1
 854 526 l 1
 564 -25 l 1
564 -25 m 1
 420 434 l 5
 422 434 l 5
 472 551 l 5
 614 96 l 1
 608 96 l 1
 564 -25 l 1
219 -25 m 1
 208 93 l 1
 202 93 l 1
 472 551 l 5
 491 437 l 5
 493 437 l 5
 219 -25 l 1
219 -25 m 1
 83 526 l 1
 183 526 l 1
 272 120 l 1
 266 120 l 1
 219 -25 l 1
EndSplineSet
EndChar

StartChar: W
Encoding: 87 87 42
Width: 931
VWidth: 0
Flags: HW
LayerCount: 2
Fore
SplineSet
572 757 m 5
 723 111 l 5
 668 -27 l 5
 520 608 l 5
 572 757 l 5
1024 730 m 5
 668 -27 l 5
 659 124 l 5
 923 730 l 5
 1024 730 l 5
213 730 m 5
 298 121 l 5
 246 -27 l 5
 112 730 l 5
 213 730 l 5
581 605 m 5
 246 -27 l 5
 232 114 l 5
 572 757 l 5
 581 605 l 5
EndSplineSet
EndChar

StartChar: x
Encoding: 120 120 43
Width: 527
VWidth: 0
Flags: HW
LayerCount: 2
Fore
SplineSet
94 526 m 1
 201 526 l 1
 527 0 l 1
 420 0 l 1
 94 526 l 1
581 526 m 1
 106 0 l 1
 0 0 l 1
 474 526 l 1
 581 526 l 1
EndSplineSet
EndChar

StartChar: z
Encoding: 122 122 44
Width: 502
VWidth: 0
Flags: HW
LayerCount: 2
Fore
SplineSet
102 442 m 5
 113 526 l 5
 531 526 l 5
 460 442 l 5
 102 442 l 5
40 0 m 5
 110 84 l 5
 469 84 l 5
 458 0 l 5
 40 0 l 5
10 0 m 5
 461 526 l 5
 561 526 l 5
 110 0 l 5
 10 0 l 5
EndSplineSet
EndChar

StartChar: P
Encoding: 80 80 45
Width: 524
VWidth: 0
Flags: HW
LayerCount: 2
Fore
SplineSet
369 730 m 1xe2
 507 730 585 640 566 502 c 4
 547 364 442 269 304 269 c 1
 316 350 l 1
 407 350 467 406 480 502 c 4
 493 598 449 649 358 649 c 1
 369 730 l 1xe2
169 269 m 1xea
 181 350 l 1
 316 350 l 1
 304 269 l 1
 169 269 l 1xea
66 0 m 1xf2
 169 730 l 1xf2
 255 730 l 1xe6
 152 0 l 1
 66 0 l 1xf2
239 649 m 1xe6
 250 730 l 1
 369 730 l 1
 358 649 l 1
 239 649 l 1xe6
EndSplineSet
EndChar

StartChar: exclam
Encoding: 33 33 46
Width: 224
VWidth: 0
Flags: HW
LayerCount: 2
Fore
SplineSet
57 51 m 4xc0
 62 86 93 113 128 113 c 4
 163 113 186 86 181 51 c 4
 176 16 145 -11 110 -11 c 4
 75 -11 52 16 57 51 c 4xc0
117 281 m 5x90
 176 811 l 5
 281 811 l 5xa0
 190 281 l 5
 117 281 l 5x90
EndSplineSet
EndChar

StartChar: B
Encoding: 66 66 47
Width: 566
VWidth: 0
Flags: HW
LayerCount: 2
Fore
SplineSet
380 730 m 1xde
 488 730 568 642 553 534 c 0
 539 437 423 347 326 347 c 1xbe
 336 415 l 1
 403 415 458 467 467 534 c 0
 476 601 436 649 369 649 c 1
 380 730 l 1xde
239 649 m 1
 250 730 l 1
 380 730 l 1
 369 649 l 1
 239 649 l 1
194 333 m 1xdc
 206 415 l 1
 368 415 l 1
 356 333 l 1
 194 333 l 1xdc
66 0 m 1
 169 730 l 1
 255 730 l 1
 152 0 l 1
 66 0 l 1
148 0 m 1
 159 81 l 5
 321 81 l 5
 310 0 l 1
 148 0 l 1
364 391 m 1xbd
 467 391 564 320 548 207 c 0
 532 93 424 0 310 0 c 1
 321 81 l 5
 393 81 453 135 463 207 c 0
 473 279 428 333 356 333 c 1xdd
 364 391 l 1xbd
EndSplineSet
EndChar

StartChar: S
Encoding: 83 83 48
Width: 563
VWidth: 0
Flags: HW
LayerCount: 2
Fore
SplineSet
159 546 m 1xbc
 174 656 286 741 413 741 c 0
 543 741 602 664 602 664 c 1
 557 594 l 1
 557 594 511 658 406 658 c 0
 316 658 257 604 249 549 c 1xdc
 159 546 l 1xbc
552 189 m 5
 537 79 427 -11 290 -11 c 0
 133 -11 52 98 52 98 c 1
 114 166 l 1
 114 166 176 77 303 77 c 0
 395 77 453 134 461 189 c 1
 552 189 l 5
338 329 m 0
 233 358 140 414 159 546 c 5xbc
 249 549 l 1
 240 484 272 440 372 413 c 0
 484 383 571 326 552 189 c 1
 461 189 l 5
 472 265 435 302 338 329 c 0
EndSplineSet
EndChar

StartChar: Q
Encoding: 81 81 49
Width: 848
VWidth: 0
Flags: HW
LayerCount: 2
Fore
SplineSet
718 0 m 5x78
 470 303 l 5
 571 303 l 1
 820 0 l 1
 718 0 l 5x78
172 366 m 0
 149 201 253 75 416 75 c 0xb8
 579 75 718 201 741 366 c 0
 764 531 661 656 498 656 c 0
 335 656 195 531 172 366 c 0
80 366 m 0
 109 574 302 742 510 742 c 0
 718 742 862 574 833 366 c 0
 804 158 612 -11 404 -11 c 0
 196 -11 51 158 80 366 c 0
EndSplineSet
EndChar

StartChar: Z
Encoding: 90 90 50
Width: 645
VWidth: 0
Flags: HW
LayerCount: 2
Fore
SplineSet
128 649 m 1
 139 730 l 1
 702 730 l 1
 637 649 l 1
 128 649 l 1
36 0 m 1
 102 81 l 1
 611 81 l 1
 600 0 l 1
 36 0 l 1
10 0 m 1
 627 730 l 5
 729 730 l 1
 112 0 l 1
 10 0 l 1
EndSplineSet
EndChar

StartChar: U
Encoding: 85 85 51
Width: 670
VWidth: 0
Flags: W
HStem: -11 81<261.024 433.656> 710 20G<166.209 255 616.179 706>
DStem2: 103 257 189 262 0.138196 0.990405<-71.3654 477.582> 553 262 640 257 0.138196 0.990405<-93.857 472.63>
LayerCount: 2
Fore
SplineSet
553 262 m 1
 619 730 l 1
 706 730 l 1
 640 257 l 1
 553 262 l 1
103 257 m 1
 169 730 l 1
 255 730 l 1
 189 262 l 1
 103 257 l 1
640 257 m 1
 619 109 481 -11 333 -11 c 0
 185 -11 82 109 103 257 c 1
 189 262 l 1
 175 159 236 70 344 70 c 0
 452 70 539 159 553 262 c 1
 640 257 l 1
EndSplineSet
EndChar

StartChar: Y
Encoding: 89 89 52
Width: 594
VWidth: 0
Flags: W
HStem: 0 21G<254 342.806> 710 20G<112 217.462 575.917 687>
VStem: 254 86<0 49.8909>
LayerCount: 2
Fore
SplineSet
254 0 m 1
 309 392 l 1
 395 392 l 1
 340 0 l 1
 254 0 l 1
330 240 m 5
 112 730 l 1
 209 730 l 1
 352 392 l 1
 590 730 l 1
 687 730 l 1
 330 240 l 5
EndSplineSet
EndChar

StartChar: X
Encoding: 88 88 53
Width: 639
VWidth: 0
Flags: HW
LayerCount: 2
Fore
SplineSet
630 0 m 1
 532 0 l 1
 132 730 l 1
 229 730 l 1
 630 0 l 1
712 730 m 1
 106 0 l 1
 10 0 l 1
 615 730 l 5
 712 730 l 1
EndSplineSet
EndChar

StartChar: K
Encoding: 75 75 54
Width: 561
VWidth: 0
Flags: HW
LayerCount: 2
Fore
SplineSet
190 351 m 1
 558 730 l 1
 664 730 l 5
 296 351 l 5
 190 351 l 1
449 0 m 1
 185 351 l 1
 296 351 l 5
 561 0 l 5
 449 0 l 1
76 0 m 1
 179 730 l 1
 265 730 l 1
 162 0 l 1
 76 0 l 1
EndSplineSet
EndChar

StartChar: comma
Encoding: 44 44 55
Width: 263
VWidth: 0
Flags: W
HStem: -110 212
VStem: 2 205
LayerCount: 2
Fore
SplineSet
106 102 m 5
 207 102 l 5
 70 -110 l 5
 2 -110 l 5
 106 102 l 5
EndSplineSet
EndChar

StartChar: quotedbl
Encoding: 34 34 56
Width: 242
VWidth: 0
Flags: HW
LayerCount: 2
Fore
SplineSet
255 811 m 5
 340 811 l 1
 294 599 l 1
 241 599 l 5
 255 811 l 5
130 811 m 1
 215 811 l 1
 169 599 l 1
 116 599 l 1
 130 811 l 1
EndSplineSet
EndChar

StartChar: quotesingle
Encoding: 39 39 57
Width: 111
VWidth: 0
Flags: HW
LayerCount: 2
Fore
SplineSet
124 811 m 1
 215 811 l 1
 166 599 l 5
 108 599 l 5
 124 811 l 1
EndSplineSet
EndChar

StartChar: colon
Encoding: 58 58 58
Width: 263
VWidth: 0
Flags: HW
LayerCount: 2
Fore
SplineSet
130 425 m 4
 135 460 165 487 200 487 c 4
 235 487 259 460 254 425 c 4
 249 390 218 363 183 363 c 4
 148 363 125 390 130 425 c 4
85 107 m 0
 90 142 121 169 156 169 c 0
 191 169 214 142 209 107 c 0
 204 72 173 45 138 45 c 0
 103 45 80 72 85 107 c 0
EndSplineSet
EndChar

StartChar: semicolon
Encoding: 59 59 59
Width: 263
VWidth: 0
Flags: HW
LayerCount: 2
Fore
SplineSet
130 425 m 0
 135 460 165 487 200 487 c 0
 235 487 259 460 254 425 c 0
 249 390 218 363 183 363 c 0
 148 363 125 390 130 425 c 0
115 162 m 5
 216 162 l 5
 78 -50 l 5
 10 -50 l 5
 115 162 l 5
EndSplineSet
EndChar

StartChar: dollar
Encoding: 36 36 60
Width: 573
VWidth: 0
Flags: HW
LayerCount: 2
Fore
SplineSet
266 -108 m 5x9e
 395 811 l 5
 444 811 l 5
 315 -108 l 5
 266 -108 l 5x9e
162 535 m 1xbe
 177 640 291 741 418 741 c 0
 521 741 607 664 607 664 c 1
 571 594 l 1
 571 594 496 668 402 668 c 0
 323 668 253 594 245 539 c 1xde
 162 535 l 1xbe
557 189 m 1
 542 84 432 -11 295 -11 c 0
 138 -11 57 98 57 98 c 1
 107 160 l 1
 107 160 201 67 306 67 c 0
 398 67 468 131 476 186 c 1
 557 189 l 1
342 323 m 0
 236 341 145 417 162 535 c 1xbe
 245 539 l 1
 237 480 273 414 375 398 c 0
 491 379 574 311 557 189 c 1
 476 186 l 1
 486 257 443 306 342 323 c 0
EndSplineSet
EndChar

StartChar: zero
Encoding: 48 48 61
Width: 600
VWidth: 0
Flags: HW
LayerCount: 2
Fore
SplineSet
170 366 m 0
 154 255 168 70 310 70 c 0
 452 70 517 255 533 366 c 0
 549 477 535 661 393 661 c 0
 251 661 186 477 170 366 c 0
83 366 m 0
 109 552 218 742 404 742 c 0
 590 742 646 552 620 366 c 0
 594 180 484 -11 298 -11 c 0
 112 -11 57 180 83 366 c 0
EndSplineSet
EndChar

StartChar: one
Encoding: 49 49 62
Width: 600
VWidth: 0
Flags: HW
LayerCount: 2
Fore
SplineSet
211 557 m 5
 223 638 l 5
 480 746 l 5
 465 638 l 5
 211 557 l 5
288 0 m 5
 378 638 l 5
 480 746 l 5
 375 0 l 5
 288 0 l 5
EndSplineSet
EndChar

StartChar: two
Encoding: 50 50 63
Width: 600
VWidth: 1081
Flags: HW
LayerCount: 2
Fore
SplineSet
411 742 m 1
 552 742 626 672 606 530 c 0
 595 450 538 371 477 306 c 2
 263 86 l 5
 566 86 l 1
 554 0 l 1
 68 0 l 1
 424 368 l 2
 467 413 507 475 515 530 c 0
 526 611 489 650 398 650 c 1
 411 742 l 1
398 650 m 1
 289 650 182 525 182 525 c 1
 198 637 l 1
 198 637 283 742 411 742 c 1
 398 650 l 1
EndSplineSet
EndChar

StartChar: percent
Encoding: 37 37 64
Width: 1138
VWidth: 0
Flags: HW
LayerCount: 2
Fore
SplineSet
714 188 m 0xa3c0
 704 114 753 50 829 50 c 0
 905 50 972 114 982 188 c 0
 992 262 944 327 868 327 c 0
 792 327 724 262 714 188 c 0xa3c0
649 188 m 0
 664 298 766 387 876 387 c 0
 986 387 1062 298 1047 188 c 0
 1032 78 930 -11 820 -11 c 0
 710 -11 634 78 649 188 c 0
249 0 m 5x47c0
 892 730 l 5
 984 730 l 1
 341 0 l 1
 249 0 l 5x47c0
250 542 m 0
 240 468 289 403 365 403 c 0
 441 403 508 468 518 542 c 0
 528 616 480 680 404 680 c 0x1bc0
 328 680 260 616 250 542 c 0
185 542 m 0
 200 652 302 741 412 741 c 0
 522 741 598 652 583 542 c 0
 568 432 466 343 356 343 c 0
 246 343 170 432 185 542 c 0
EndSplineSet
EndChar

StartChar: three
Encoding: 51 51 65
Width: 600
VWidth: 0
Flags: HW
LayerCount: 2
Fore
SplineSet
223 649 m 1
 235 730 l 1
 635 730 l 1
 483 649 l 1
 223 649 l 1
319 443 m 1
 465 443 559 346 542 222 c 0
 523 87 412 -11 255 -11 c 1
 267 69 l 1
 361 69 443 123 457 222 c 0
 472 327 381 370 276 370 c 5
 319 443 l 1
227 370 m 5
 543 730 l 1
 635 730 l 1
 319 370 l 5
 227 370 l 5
255 -12 m 1
 206 -12 148 -1 108 21 c 1
 121 116 l 1
 153 83 216 69 267 69 c 1
 255 -12 l 1
EndSplineSet
EndChar

StartChar: four
Encoding: 52 52 66
Width: 600
VWidth: 0
Flags: HW
LayerCount: 2
Fore
SplineSet
62 132 m 5
 160 213 l 5
 587 213 l 5
 576 132 l 5
 62 132 l 5
390 0 m 1
 479 631 l 1
 566 641 l 1
 476 0 l 1
 390 0 l 1
566 642 m 1
 171 143 l 5
 62 132 l 5
 582 757 l 1
 566 642 l 1
EndSplineSet
EndChar

StartChar: five
Encoding: 53 53 67
Width: 600
VWidth: 0
Flags: HW
LayerCount: 2
Fore
SplineSet
249 730 m 1
 334 730 l 1
 232 389 l 1
 175 350 l 1
 148 389 l 1
 249 730 l 1
237 649 m 1
 249 730 l 1
 570 730 l 5
 558 649 l 5
 237 649 l 1
182 342 m 1
 148 388 l 1
 148 389 l 1
 148 389 246 443 338 443 c 4
 487 443 554 353 535 216 c 4
 516 79 401 -11 252 -11 c 4
 192 -11 120 6 80 28 c 1
 93 123 l 1
 125 90 202 70 264 70 c 4
 360 70 435 123 448 216 c 4
 461 309 401 363 316 363 c 4
 267 363 217 352 182 342 c 1
EndSplineSet
EndChar

StartChar: six
Encoding: 54 54 68
Width: 600
VWidth: 0
Flags: HW
LayerCount: 2
Fore
SplineSet
408 730 m 5
 502 730 l 5
 295 413 l 1
 325 425 353 433 383 433 c 0
 487 433 575 341 557 216 c 0
 539 91 423 -11 298 -11 c 0
 173 -11 85 91 103 216 c 0
 108 254 125 293 144 322 c 1
 408 730 l 5
189 216 m 0
 177 133 228 75 311 75 c 0
 394 75 460 133 472 216 c 0
 484 299 433 357 350 357 c 0
 267 357 201 299 189 216 c 0
EndSplineSet
EndChar

StartChar: eight
Encoding: 56 56 70
Width: 600
VWidth: 0
Flags: HW
LayerCount: 2
Fore
SplineSet
187 554 m 0xb6
 202 660 299 745 405 745 c 0
 511 745 585 660 570 554 c 0
 556 453 438 384 354 384 c 0
 270 384 173 453 187 554 c 0xb6
273 554 m 0
 264 493 302 448 363 448 c 0xd6
 424 448 475 493 484 554 c 0
 493 615 454 659 393 659 c 0
 332 659 282 615 273 554 c 0
104 222 m 0xb9
 121 342 246 434 361 434 c 4
 476 434 575 336 558 216 c 0
 540 91 423 -11 298 -11 c 0
 173 -11 86 97 104 222 c 0xb9
184 216 m 0
 172 133 228 75 311 75 c 0
 394 75 465 133 477 216 c 0
 489 299 434 364 351 364 c 4xd9
 268 364 196 299 184 216 c 0
EndSplineSet
EndChar

StartChar: seven
Encoding: 55 55 71
Width: 600
VWidth: 0
Flags: HW
LayerCount: 2
Fore
SplineSet
161 644 m 1
 173 730 l 1
 633 730 l 1
 548 644 l 1
 161 644 l 1
146 0 m 5
 541 730 l 5
 633 730 l 1
 238 0 l 1
 146 0 l 5
EndSplineSet
EndChar

StartChar: numbersign
Encoding: 35 35 72
Width: 702
VWidth: 0
Flags: HW
LayerCount: 2
Fore
SplineSet
50 205 m 1
 77 281 l 1
 207 281 l 1
 272 454 l 1
 142 454 l 1
 169 530 l 1
 299 530 l 1
 374 730 l 1
 456 730 l 1
 380 530 l 1
 553 530 l 1
 629 730 l 1
 710 730 l 1
 634 530 l 1
 764 530 l 1
 737 454 l 1
 607 454 l 1
 542 281 l 1
 672 281 l 1
 644 205 l 1
 515 205 l 1
 438 0 l 1
 357 0 l 1
 433 205 l 1
 260 205 l 1
 184 0 l 1
 103 0 l 1
 179 205 l 1
 50 205 l 1
461 281 m 1
 526 454 l 1
 353 454 l 1
 288 281 l 1
 461 281 l 1
EndSplineSet
EndChar

StartChar: parenright
Encoding: 41 41 74
Width: 206
VWidth: 0
Flags: HW
LayerCount: 2
Fore
SplineSet
184 809 m 5
 286 534 221 71 43 -194 c 5
 -15 -188 l 5
 133 130 181 480 124 804 c 5
 184 809 l 5
EndSplineSet
EndChar

StartChar: asterisk
Encoding: 42 42 75
Width: 334
VWidth: 0
Flags: HW
LayerCount: 2
Fore
SplineSet
417 789 m 1
 430 721 l 1
 271 685 l 1
 264 725 l 1
 417 789 l 1
375 599 m 1
 311 558 l 1
 248 692 l 1
 286 717 l 1
 375 599 l 1
184 556 m 1
 132 598 l 1
 252 717 l 1
 282 692 l 1
 184 556 l 1
108 718 m 1
 139 786 l 1
 277 725 l 1
 258 685 l 1
 108 718 l 1
252 862 m 1
 323 862 l 1
 288 705 l 1
 246 705 l 1
 252 862 l 1
EndSplineSet
EndChar

StartChar: ampersand
Encoding: 38 38 76
Width: 872
VWidth: 0
Flags: HW
LayerCount: 2
Fore
SplineSet
672 247 m 1
 675 250 680 254 682 257 c 2
 781 367 l 1
 841 323 l 1
 743 214 l 2
 737 206 728 199 721 191 c 1
 818 80 l 1
 803 -29 l 1
 661 132 l 1
 569 51 464 -11 341 -11 c 0
 213 -11 134 89 149 196 c 0
 160 276 223 345 312 399 c 0
 324 407 395 443 395 443 c 1
 352 494 315 549 328 639 c 0
 338 713 408 811 539 811 c 0
 653 811 706 734 693 642 c 0
 679 544 582 485 503 432 c 1
 672 247 l 1
437 393 m 1
 437 393 387 359 357 342 c 0
 288 303 244 250 236 196 c 0
 226 124 290 72 353 72 c 0
 452 72 531 113 612 187 c 1
 437 393 l 1
462 485 m 1
 548 541 606 589 613 642 c 0
 622 707 587 735 528 735 c 0
 447 735 413 675 408 639 c 0
 399 577 416 540 462 485 c 1
EndSplineSet
EndChar

StartChar: plus
Encoding: 43 43 77
Width: 540
VWidth: 0
Flags: HW
LayerCount: 2
Fore
SplineSet
284 384 m 5
 312 583 l 5
 392 583 l 5
 364 384 l 5
 541 384 l 5
 530 309 l 5
 353 309 l 5
 325 108 l 5
 245 108 l 5
 273 309 l 5
 97 309 l 5
 108 384 l 5
 284 384 l 5
EndSplineSet
EndChar

StartChar: equal
Encoding: 61 61 78
Width: 540
VWidth: 0
Flags: HW
LayerCount: 2
Fore
SplineSet
529 297 m 5
 518 223 l 5
 85 223 l 5
 96 297 l 5
 529 297 l 5
553 470 m 5
 543 396 l 5
 110 396 l 5
 120 470 l 5
 553 470 l 5
EndSplineSet
EndChar

StartChar: hyphen
Encoding: 45 45 79
Width: 432
VWidth: 0
Flags: HW
LayerCount: 2
Fore
SplineSet
378 384 m 1
 367 309 l 1
 151 309 l 1
 162 384 l 1
 378 384 l 1
EndSplineSet
EndChar

StartChar: at
Encoding: 64 64 80
Width: 972
VWidth: 0
Flags: HW
HStem: -216 75<325.444 428> -11 76<373.281 514.861 687.702 767.281> 125 55<620 683> 411 76<443.839 593.594> 616 76<422.335 668.007>
VStem: 50 79<53.9108 308.875> 686 70<412.507 443> 835 76<166.672 463.762>
LayerCount: 2
Fore
SplineSet
723 61 m 1
 706 -15 l 1
 624 -15 592 59 620 180 c 1
 695 180 l 1
 680 114 675 61 723 61 c 1
723 61 m 1
 771 61 812 140 835 238 c 1
 911 238 l 1
 873 74 788 -15 706 -15 c 1
 723 61 l 1
683 125 m 1
 613 125 l 1
 686 443 l 1
 756 443 l 1
 683 125 l 1
639 238 m 0
 660 331 612 411 523 411 c 0
 434 411 348 331 327 238 c 0
 306 145 354 65 443 65 c 0
 532 65 618 145 639 238 c 0
676 238 m 0
 644 101 553 -11 425 -11 c 0
 297 -11 219 101 251 238 c 0
 283 375 412 487 540 487 c 0
 668 487 708 375 676 238 c 0
50 167 m 0
 50 485 305 692 568 692 c 0
 821 692 964 467 911 238 c 1
 835 238 l 1
 883 447 764 616 550 616 c 0
 336 616 129 441 129 167 c 4
 129 -2 251 -141 445 -141 c 1
 428 -216 l 1
 195 -216 50 -44 50 167 c 0
EndSplineSet
EndChar

StartChar: slash
Encoding: 47 47 81
Width: 436
VWidth: 0
Flags: HW
LayerCount: 2
Fore
SplineSet
-45 -107 m 5
 492 837 l 1
 584 837 l 1
 47 -107 l 5
 -45 -107 l 5
EndSplineSet
EndChar

StartChar: backslash
Encoding: 92 92 82
Width: 437
VWidth: 0
Flags: HW
LayerCount: 2
Fore
SplineSet
87 827 m 1
 179 827 l 1
 463 -27 l 5
 371 -27 l 5
 87 827 l 1
EndSplineSet
EndChar

StartChar: question
Encoding: 63 63 83
Width: 479
VWidth: 0
Flags: HW
LayerCount: 2
Fore
SplineSet
136 51 m 4xf4
 141 86 172 113 207 113 c 4
 242 113 265 86 260 51 c 4
 255 16 224 -11 189 -11 c 4
 154 -11 131 16 136 51 c 4xf4
429 573 m 4
 442 666 380 746 285 746 c 4
 234 746 180 732 138 699 c 5
 151 789 l 5
 197 811 247 822 296 822 c 4
 433 822 529 710 510 573 c 4
 491 436 363 324 226 324 c 4
 210 324 196 329 196 329 c 5
 190 406 l 5
 190 406 211 400 247 400 c 4
 331 400 416 480 429 573 c 4
179 200 m 5xec
 190 406 l 5
 230 384 l 5
 288 403 l 5
 248 200 l 5
 179 200 l 5xec
EndSplineSet
EndChar

StartChar: greater
Encoding: 62 62 84
Width: 540
VWidth: 0
Flags: HW
LayerCount: 2
Fore
SplineSet
117 449 m 1
 128 523 l 1
 563 346 l 1
 452 326 l 1
 117 449 l 1
78 168 m 1
 88 242 l 1
 458 367 l 1
 563 346 l 1
 78 168 l 1
EndSplineSet
EndChar

StartChar: less
Encoding: 60 60 85
Width: 540
VWidth: 0
Flags: HW
LayerCount: 2
Fore
SplineSet
521 243 m 5
 511 169 l 5
 76 346 l 5
 187 367 l 5
 521 243 l 5
561 525 m 5
 550 450 l 5
 181 326 l 5
 76 346 l 5
 561 525 l 5
EndSplineSet
EndChar

StartChar: bracketleft
Encoding: 91 91 86
Width: 243
VWidth: 0
Flags: HW
LayerCount: 2
Fore
SplineSet
178 692 m 1
 187 757 l 1
 425 757 l 1
 420 719 l 1
 178 692 l 1
62 -135 m 1
 71 -70 l 1
 305 -97 l 1
 300 -135 l 1
 62 -135 l 1
62 -135 m 5
 187 757 l 5
 260 735 l 5
 146 -81 l 5
 62 -135 l 5
EndSplineSet
EndChar

StartChar: bracketright
Encoding: 93 93 87
Width: 243
VWidth: 0
Flags: HW
LayerCount: 2
Fore
SplineSet
152 -70 m 5
 143 -135 l 5
 -95 -135 l 5
 -90 -97 l 5
 152 -70 l 5
268 757 m 1
 259 692 l 1
 25 719 l 1
 30 757 l 1
 268 757 l 1
268 757 m 1
 143 -135 l 5
 71 -114 l 5
 186 703 l 1
 268 757 l 1
EndSplineSet
EndChar

StartChar: asciicircum
Encoding: 94 94 88
Width: 350
VWidth: 0
Flags: W
HStem: 626 212
VStem: 120 286
LayerCount: 2
Fore
SplineSet
267 762 m 5
 293 838 l 5
 406 626 l 5
 337 626 l 5
 267 762 l 5
293 838 m 5
 297 762 l 5
 190 626 l 5
 120 626 l 5
 293 838 l 5
EndSplineSet
EndChar

StartChar: underscore
Encoding: 95 95 89
Width: 540
VWidth: 0
Flags: HW
LayerCount: 2
Fore
SplineSet
-25 -178 m 1
 -15 -108 l 1
 526 -108 l 5
 516 -178 l 5
 -25 -178 l 1
EndSplineSet
EndChar

StartChar: bar
Encoding: 124 124 90
Width: 243
VWidth: 0
Flags: HW
LayerCount: 2
Fore
SplineSet
58 -162 m 5
 195 811 l 5
 276 811 l 5
 139 -162 l 5
 58 -162 l 5
EndSplineSet
EndChar

StartChar: braceleft
Encoding: 123 123 91
Width: 243
VWidth: 0
Flags: HW
LayerCount: 2
Fore
SplineSet
148 476 m 1x98
 160 562 l 1
 236 562 l 1
 224 476 l 1
 148 476 l 1x98
224 476 m 1
 205 339 159 303 32 303 c 5xb8
 38 351 l 5xd8
 125 351 135 381 148 476 c 1
 224 476 l 1
37 341 m 5
 164 341 197 283 178 146 c 1
 102 146 l 1
 116 243 114 292 30 292 c 5xd8
 37 341 l 5
257 -135 m 1
 120 -135 70 -78 89 59 c 1
 165 59 l 1
 151 -38 172 -65 267 -65 c 1
 257 -135 l 1
89 59 m 1
 102 146 l 1
 178 146 l 1
 165 59 l 1
 89 59 l 1
160 562 m 1
 179 699 245 757 382 757 c 1
 373 687 l 1
 276 687 249 657 236 562 c 1
 160 562 l 1
EndSplineSet
EndChar

StartChar: braceright
Encoding: 125 125 92
Width: 243
VWidth: 0
Flags: HW
LayerCount: 2
Fore
SplineSet
184 154 m 1x98
 171 67 l 1
 96 67 l 1
 109 154 l 1
 184 154 l 1x98
109 154 m 1
 128 291 173 327 300 327 c 5xb8
 293 278 l 5xd8
 206 278 197 249 184 154 c 1
 109 154 l 1
295 289 m 5
 168 289 136 346 155 483 c 1
 230 483 l 1
 216 386 217 337 301 337 c 5xd8
 295 289 l 5
76 765 m 1
 213 765 261 707 242 570 c 1
 167 570 l 1
 181 667 161 694 66 694 c 1
 76 765 l 1
242 570 m 1
 230 483 l 1
 155 483 l 1
 167 570 l 1
 242 570 l 1
171 67 m 1
 152 -70 87 -128 -50 -128 c 1
 -40 -57 l 1
 57 -57 83 -28 96 67 c 1
 171 67 l 1
EndSplineSet
EndChar

StartChar: asciitilde
Encoding: 126 126 93
Width: 540
VWidth: 0
Flags: W
HStem: 255 183
LayerCount: 2
Fore
SplineSet
522 438 m 5
 510 353 l 1
 285 137 344 482 117 255 c 5
 129 341 l 1
 365 557 295 211 522 438 c 5
EndSplineSet
EndChar

StartChar: cedilla
Encoding: 184 184 94
Width: 263
VWidth: 0
Flags: W
HStem: -216 189
VStem: -8 192
LayerCount: 2
Fore
SplineSet
93 -27 m 1
 184 -27 l 1
 50 -216 l 1
 -8 -216 l 1
 93 -27 l 1
EndSplineSet
EndChar

StartChar: grave
Encoding: 96 96 95
Width: 189
VWidth: 0
Flags: W
HStem: 761 212
VStem: 137 159
LayerCount: 2
Fore
SplineSet
137 973 m 5
 261 973 l 5
 296 761 l 5
 137 973 l 5
EndSplineSet
EndChar

StartChar: cent
Encoding: 162 162 97
Width: 475
VWidth: 0
Flags: HW
LayerCount: 2
Fore
SplineSet
228 -108 m 1
 325 584 l 1
 374 584 l 1
 277 -108 l 1
 228 -108 l 1
157 238 m 0
 144 145 206 65 301 65 c 0
 352 65 407 80 449 113 c 1
 436 22 l 1
 390 0 339 -11 290 -11 c 0
 153 -11 57 101 76 238 c 0
 95 375 223 487 360 487 c 0
 409 487 457 476 497 454 c 1
 484 363 l 1
 452 396 401 411 350 411 c 0
 255 411 170 331 157 238 c 0
EndSplineSet
EndChar

StartChar: sterling
Encoding: 163 163 98
Width: 475
VWidth: 0
Flags: HW
LayerCount: 2
Fore
SplineSet
11 0 m 1
 22 81 l 1
 487 81 l 1
 476 0 l 1
 11 0 l 1
67 395 m 5
 78 476 l 1
 375 476 l 1
 364 395 l 5
 67 395 l 5
92 0 m 1
 179 622 l 1
 265 622 l 1
 178 0 l 1
 92 0 l 1
401 741 m 1
 413 822 l 1
 500 822 545 762 545 762 c 1
 534 681 l 1
 534 681 479 741 401 741 c 1
401 741 m 1
 322 741 276 701 265 622 c 1
 179 622 l 1
 198 756 292 822 413 822 c 1
 401 741 l 1
EndSplineSet
EndChar

StartChar: currency
Encoding: 164 164 99
Width: 583
VWidth: 0
Flags: HW
LayerCount: 2
Fore
SplineSet
463 65 m 1
 575 -103 l 1
 478 -103 l 1
 366 65 l 1
 463 65 l 1
236 65 m 1
 78 -103 l 1
 -19 -103 l 1
 139 65 l 1
 236 65 l 1
188 411 m 1
 76 579 l 1
 173 579 l 1
 285 411 l 1
 188 411 l 1
415 411 m 5
 573 579 l 1
 670 579 l 1
 512 411 l 5
 415 411 l 5
157 238 m 0
 144 145 206 65 301 65 c 0
 396 65 480 145 493 238 c 0
 506 331 445 411 350 411 c 0
 255 411 170 331 157 238 c 0
76 238 m 0
 95 375 223 487 360 487 c 0
 497 487 593 375 574 238 c 0
 555 101 427 -11 290 -11 c 0
 153 -11 57 101 76 238 c 0
EndSplineSet
EndChar

StartChar: yen
Encoding: 165 165 100
Width: 621
VWidth: 0
Flags: HW
LayerCount: 2
Fore
SplineSet
140 225 m 5
 147 274 l 5
 552 274 l 5
 545 225 l 5
 140 225 l 5
155 333 m 5
 162 382 l 5
 567 382 l 5
 560 333 l 5
 155 333 l 5
270 0 m 5
 324 382 l 5
 404 382 l 5
 350 0 l 5
 270 0 l 5
345 250 m 5
 114 730 l 5
 206 730 l 5
 364 382 l 5
 622 730 l 5
 714 730 l 5
 345 250 l 5
EndSplineSet
EndChar

StartChar: brokenbar
Encoding: 166 166 101
Width: 243
VWidth: 0
Flags: HW
LayerCount: 2
Fore
SplineSet
223 433 m 1
 142 433 l 1
 195 811 l 1
 276 811 l 1
 223 433 l 1
192 216 m 1
 139 -162 l 1
 58 -162 l 1
 111 216 l 1
 192 216 l 1
EndSplineSet
EndChar

StartChar: section
Encoding: 167 167 102
Width: 443
VWidth: 0
Flags: HW
LayerCount: 2
Fore
SplineSet
149 601 m 1
 161 684 237 742 342 742 c 0
 423 742 481 687 481 687 c 1
 442 615 l 1
 442 615 400 669 327 669 c 0
 270 669 237 639 232 605 c 1
 149 601 l 1
296 447 m 0
 229 447 136 505 149 601 c 1
 232 605 l 1
 227 567 255 532 314 523 c 0
 389 512 466 470 452 369 c 1
 371 366 l 1
 378 416 357 447 296 447 c 0
419 135 m 1
 406 41 330 -11 225 -11 c 0
 100 -11 54 76 54 76 c 1
 110 135 l 1
 110 135 153 64 231 64 c 0
 301 64 334 98 339 132 c 1
 419 135 l 1
252 215 m 0
 188 226 104 272 117 368 c 1
 199 371 l 1
 194 333 222 290 281 290 c 0
 358 290 433 236 419 135 c 1
 339 132 l 1
 346 182 310 205 252 215 c 0
296 447 m 1
 239 447 204 405 199 371 c 1
 117 368 l 1
 129 450 201 495 303 497 c 1
 296 447 l 1
255 237 m 1
 281 290 l 1
 347 290 366 333 371 366 c 1
 452 369 l 1
 439 275 360 237 255 237 c 1
EndSplineSet
EndChar

StartChar: dieresis
Encoding: 168 168 103
Width: 464
VWidth: 0
Flags: W
HStem: 872 112<222.815 301.7 423.454 502.7>
VStem: 206 112<888.375 967.625> 406 113<888.375 966.665>
LayerCount: 2
Fore
SplineSet
406 928 m 0
 410 959 440 984 471 984 c 0
 502 984 523 959 519 928 c 0
 515 897 487 872 456 872 c 0
 425 872 402 897 406 928 c 0
206 928 m 0
 210 959 239 984 270 984 c 0
 301 984 322 959 318 928 c 0
 314 897 286 872 255 872 c 0
 224 872 202 897 206 928 c 0
EndSplineSet
EndChar

StartChar: copyright
Encoding: 169 169 104
Width: 839
VWidth: 0
Flags: HW
LayerCount: 2
Fore
SplineSet
359 366 m 0
 349 294 395 240 466 240 c 0
 504 240 542 251 574 273 c 1
 565 206 l 1
 531 188 494 177 457 177 c 0
 353 177 280 262 295 366 c 0
 310 470 406 554 510 554 c 0
 547 554 582 543 610 525 c 1
 600 458 l 1
 574 480 539 492 501 492 c 0
 430 492 369 438 359 366 c 0
181 366 m 0
 158 201 267 70 430 70 c 0
 593 70 737 201 760 366 c 0
 783 531 676 661 513 661 c 0
 350 661 204 531 181 366 c 0
94 366 m 0
 123 574 316 742 524 742 c 0
 732 742 876 574 847 366 c 0
 818 158 626 -11 418 -11 c 0
 210 -11 65 158 94 366 c 0
EndSplineSet
EndChar

StartChar: registered
Encoding: 174 174 105
Width: 839
VWidth: 0
Flags: HW
LayerCount: 2
Fore
SplineSet
514 548 m 5xdcc0
 583 548 646 518 633 427 c 4
 620 336 549 307 480 307 c 5
 489 367 l 5
 534 367 565 384 571 427 c 4
 577 470 551 488 506 488 c 5
 514 548 l 5xdcc0
396 307 m 5xddc0
 405 367 l 5
 489 367 l 5
 480 307 l 5
 396 307 l 5xddc0
325 182 m 5x9ec0
 376 548 l 5
 438 548 l 5
 387 182 l 5
 325 182 l 5x9ec0
430 488 m 5
 438 548 l 5
 514 548 l 5
 506 488 l 5
 430 488 l 5
532 182 m 5
 453 345 l 5
 520 345 l 5xbcc0
 599 182 l 5
 532 182 l 5
181 366 m 0
 158 201 267 70 430 70 c 0
 593 70 737 201 760 366 c 0
 783 531 676 661 513 661 c 0
 350 661 204 531 181 366 c 0
94 366 m 0
 123 574 316 742 524 742 c 0
 732 742 876 574 847 366 c 0
 818 158 626 -11 418 -11 c 0
 210 -11 65 158 94 366 c 0
EndSplineSet
EndChar

StartChar: ordfeminine
Encoding: 170 170 106
Width: 359
VWidth: 0
Flags: HW
LayerCount: 2
Fore
SplineSet
274 684 m 1xc040
 279 719 l 1
 357 719 l 1
 352 684 l 1
 274 684 l 1xc040
208 643 m 1xc4
 171 643 l 1
 178 693 218 719 279 719 c 1
 274 684 l 1
 241 684 212 669 208 643 c 1xc4
208 643 m 1
 204 617 224 606 257 606 c 1
 252 568 l 1x85
 191 568 164 593 171 643 c 1
 208 643 l 1
331 671 m 1x8080
 347 660 l 1
 340 613 304 568 252 568 c 1
 257 606 l 1x81
 290 606 326 632 331 671 c 1x8080
284 779 m 1x8a
 259 779 233 774 212 758 c 1
 217 800 l 1
 240 811 266 817 290 817 c 5
 284 779 l 1x8a
340 730 m 1xa080
 381 730 l 1xa080
 359 573 l 1xa1
 318 573 l 1xa040
 340 730 l 1xa080
284 779 m 1xaa80
 290 817 l 1
 351 817 390 791 381 730 c 1
 340 730 l 1
 344 758 323 779 284 779 c 1xaa80
EndSplineSet
EndChar

StartChar: guillemotleft
Encoding: 171 171 107
Width: 540
VWidth: 0
Flags: HW
LayerCount: 2
Fore
SplineSet
518 222 m 5
 508 147 l 5
 271 346 l 5
 349 367 l 5
 518 222 l 5
564 546 m 5
 553 472 l 5
 343 326 l 5
 271 346 l 5
 564 546 l 5
323 222 m 5
 313 147 l 5
 76 346 l 5
 155 367 l 5
 323 222 l 5
369 546 m 5
 358 472 l 5
 149 326 l 5
 76 346 l 5
 369 546 l 5
EndSplineSet
EndChar

StartChar: logicalnot
Encoding: 172 172 108
Width: 702
VWidth: 0
Flags: HW
LayerCount: 2
Fore
SplineSet
692 309 m 1
 670 147 l 1
 594 147 l 1
 616 309 l 1
 692 309 l 1
703 384 m 1
 692 309 l 1
 97 309 l 1
 108 384 l 1
 703 384 l 1
EndSplineSet
EndChar

StartChar: uni00AD
Encoding: 173 173 109
Width: 540
VWidth: 0
Flags: HW
LayerCount: 2
Fore
SplineSet
487 384 m 5
 476 309 l 5
 151 309 l 1
 162 384 l 1
 487 384 l 5
EndSplineSet
EndChar

StartChar: macron
Encoding: 175 175 110
Width: 540
VWidth: 0
Flags: HW
LayerCount: 2
Fore
SplineSet
619 940 m 5
 609 865 l 5
 176 865 l 5
 186 940 l 5
 619 940 l 5
EndSplineSet
EndChar

StartChar: degree
Encoding: 176 176 111
Width: 583
VWidth: 0
Flags: W
HStem: 622 59<344.89 437.64> 811 60<357.4 448.649>
VStem: 273 248
LayerCount: 2
Fore
SplineSet
334 746 m 0
 329 710 353 681 388 681 c 0
 423 681 455 710 460 746 c 0
 465 782 441 811 406 811 c 0
 371 811 339 782 334 746 c 0
273 746 m 0
 283 815 345 871 414 871 c 0
 483 871 531 815 521 746 c 0
 511 677 448 622 379 622 c 0
 310 622 263 677 273 746 c 0
EndSplineSet
EndChar

StartChar: plusminus
Encoding: 177 177 112
Width: 540
VWidth: 0
Flags: HW
LayerCount: 2
Fore
SplineSet
498 75 m 1
 487 0 l 1
 54 0 l 1
 65 75 l 1
 498 75 l 1
287 406 m 5
 312 583 l 1
 392 583 l 1
 367 406 l 5
 544 406 l 5
 534 331 l 5
 357 331 l 5
 333 162 l 1
 253 162 l 1
 277 331 l 5
 101 331 l 5
 111 406 l 5
 287 406 l 5
EndSplineSet
EndChar

StartChar: paragraph
Encoding: 182 182 113
Width: 589
VWidth: 0
Flags: HW
LayerCount: 2
Fore
SplineSet
438 811 m 1xfa
 617 811 l 1
 606 735 l 1
 427 735 l 1
 438 811 l 1xfa
324 0 m 1
 438 811 l 1
 509 811 l 1
 395 0 l 1
 324 0 l 1
465 0 m 1xfc
 579 811 l 1xfa
 649 811 l 1
 535 0 l 1
 465 0 l 1xfc
379 389 m 1
 368 314 l 1
 231 314 136 425 155 562 c 0
 174 699 301 811 438 811 c 1
 427 735 l 1
 332 735 249 655 236 562 c 0
 223 469 284 389 379 389 c 1
EndSplineSet
EndChar

StartChar: periodcentered
Encoding: 183 183 114
Width: 263
VWidth: 0
Flags: HW
LayerCount: 2
Fore
SplineSet
120 316 m 4
 124 347 153 372 184 372 c 4
 215 372 236 347 232 316 c 4
 228 285 200 260 169 260 c 4
 138 260 116 285 120 316 c 4
EndSplineSet
EndChar

StartChar: guillemotright
Encoding: 187 187 115
Width: 540
VWidth: 0
Flags: HW
LayerCount: 2
Fore
SplineSet
93 472 m 5
 104 546 l 5
 341 347 l 5
 262 327 l 5
 93 472 l 5
48 147 m 5
 58 222 l 5
 268 368 l 5
 341 347 l 5
 48 147 l 5
288 472 m 5
 299 546 l 5
 536 347 l 5
 457 327 l 5
 288 472 l 5
243 147 m 5
 253 222 l 5
 463 368 l 5
 536 347 l 5
 243 147 l 5
EndSplineSet
EndChar

StartChar: ordmasculine
Encoding: 186 186 116
Width: 410
VWidth: 0
Flags: HW
LayerCount: 2
Fore
SplineSet
223 719 m 4
 216 672 246 633 294 633 c 4
 342 633 383 672 390 719 c 4
 397 766 366 806 318 806 c 4
 270 806 230 766 223 719 c 4
182 719 m 4
 192 788 255 844 324 844 c 4
 393 844 441 788 431 719 c 4
 421 650 358 595 289 595 c 4
 220 595 172 650 182 719 c 4
EndSplineSet
EndChar

StartChar: acute
Encoding: 180 180 118
Width: 189
VWidth: 0
Flags: W
HStem: 761 212
VStem: 107 219
LayerCount: 2
Fore
SplineSet
326 973 m 1
 107 761 l 1
 202 973 l 1
 326 973 l 1
EndSplineSet
EndChar

StartChar: mu
Encoding: 181 181 119
Width: 591
VWidth: 0
Flags: HW
LayerCount: 2
Fore
SplineSet
153 238 m 1x90
 140 145 191 65 286 65 c 1
 275 -11 l 1
 138 -11 98 128 113 238 c 1xa0
 153 238 l 1x90
132 -205 m 5
 51 -205 l 5
 147 476 l 1
 228 476 l 1
 132 -205 l 5
582 476 m 1x48
 515 0 l 1x48
 434 0 l 1x44
 501 476 l 1
 582 476 l 1x48
467 238 m 1
 507 238 l 1
 492 128 412 -11 275 -11 c 1
 286 65 l 1x84
 381 65 454 145 467 238 c 1
EndSplineSet
EndChar

StartChar: igrave
Encoding: 236 236 157
Width: 263
VWidth: 0
Flags: H
LayerCount: 2
Fore
SplineSet
92 0 m 5xd0
 159 476 l 5
 239 476 l 5
 172 0 l 5
 92 0 l 5xd0
EndSplineSet
Refer: 95 96 N 1 0 0 1 -77 -145 2
EndChar

StartChar: iacute
Encoding: 237 237 158
Width: 263
VWidth: 0
Flags: H
LayerCount: 2
Fore
SplineSet
92 0 m 1
 159 476 l 1
 239 476 l 1
 172 0 l 1
 92 0 l 1
EndSplineSet
Refer: 118 180 S 1 0 0 1 112 -145 2
EndChar

StartChar: icircumflex
Encoding: 238 238 159
Width: 263
VWidth: 0
Flags: H
LayerCount: 2
Fore
SplineSet
92 0 m 1xd0
 159 476 l 1
 239 476 l 1
 172 0 l 1
 92 0 l 1xd0
EndSplineSet
Refer: 88 94 S 1 0 0 1 -44 -10 2
EndChar

StartChar: idieresis
Encoding: 239 239 160
Width: 263
VWidth: 0
Flags: H
LayerCount: 2
Fore
SplineSet
92 0 m 1xe8
 159 476 l 1
 239 476 l 1
 172 0 l 1
 92 0 l 1xe8
EndSplineSet
Refer: 103 168 S 1 0 0 1 -149 -277 2
EndChar

StartChar: thorn
Encoding: 254 254 173
Width: 614
VWidth: 0
Flags: HW
LayerCount: 2
Fore
SplineSet
48 -205 m 5xe8
 191 811 l 1
 272 811 l 1
 129 -205 l 5
 48 -205 l 5xe8
191 238 m 0
 178 145 240 65 335 65 c 0
 430 65 513 145 526 238 c 0
 539 331 479 411 384 411 c 0
 289 411 204 331 191 238 c 0
151 238 m 0xd8
 170 375 257 487 394 487 c 0
 531 487 627 375 608 238 c 0
 589 101 461 -11 324 -11 c 0
 187 -11 132 101 151 238 c 0xd8
EndSplineSet
EndChar

StartChar: AE
Encoding: 198 198 174
Width: 930
VWidth: 0
Flags: HW
LayerCount: 2
Fore
SplineSet
566 0 m 1xf8
 577 76 l 1
 955 76 l 1
 944 0 l 1
 566 0 l 1xf8
485 654 m 1
 496 730 l 1
 1047 730 l 1
 1036 654 l 1
 485 654 l 1
613 335 m 1
 624 411 l 1
 894 411 l 1
 883 335 l 1
 613 335 l 1
485 0 m 1xf4
 588 730 l 1
 669 730 l 1
 566 0 l 1xf8
 485 0 l 1xf4
14 0 m 1
 496 730 l 1
 537 694 l 1
 575 709 l 1
 101 0 l 1
 14 0 l 1
235 227 m 1
 246 303 l 1
 582 303 l 1
 571 227 l 1xf4
 235 227 l 1
EndSplineSet
EndChar

StartChar: Oslash
Encoding: 216 216 175
Width: 834
VWidth: 0
Flags: HW
LayerCount: 2
Fore
SplineSet
253 -108 m 5
 631 811 l 5
 691 811 l 5
 313 -108 l 5
 253 -108 l 5
179 366 m 0
 156 201 265 70 428 70 c 0
 591 70 735 201 758 366 c 0
 781 531 674 661 511 661 c 0
 348 661 202 531 179 366 c 0
92 366 m 0
 121 574 314 742 522 742 c 0
 730 742 874 574 845 366 c 0
 816 158 624 -11 416 -11 c 0
 208 -11 63 158 92 366 c 0
EndSplineSet
EndChar

StartChar: oslash
Encoding: 248 248 176
Width: 578
VWidth: 0
Flags: HW
LayerCount: 2
Fore
SplineSet
155 238 m 0
 142 145 204 65 299 65 c 0
 394 65 478 145 491 238 c 0
 504 331 443 411 348 411 c 0
 253 411 168 331 155 238 c 0
74 238 m 0
 93 375 221 487 358 487 c 0
 495 487 591 375 572 238 c 0
 553 101 425 -11 288 -11 c 0
 151 -11 55 101 74 238 c 0
145 -108 m 1
 437 584 l 1
 496 584 l 1
 205 -108 l 1
 145 -108 l 1
EndSplineSet
EndChar

StartChar: Thorn
Encoding: 222 222 177
Width: 546
VWidth: 0
Flags: HW
LayerCount: 2
Fore
SplineSet
362 606 m 1xf2
 500 606 578 514 559 376 c 0
 540 238 436 147 298 147 c 1
 308 223 l 1
 399 223 465 280 478 376 c 0
 491 472 442 530 351 530 c 1
 362 606 l 1xf2
163 147 m 1xf6
 173 223 l 1
 308 223 l 1
 298 147 l 1
 163 147 l 1xf6
77 0 m 1xfa
 180 730 l 5
 261 730 l 5
 158 0 l 1
 77 0 l 1xfa
232 530 m 1
 243 606 l 1
 362 606 l 1
 351 530 l 1
 232 530 l 1
EndSplineSet
EndChar

StartChar: divide
Encoding: 247 247 178
Width: 540
VWidth: 0
Flags: HW
CounterMasks: 1 e0
LayerCount: 2
Fore
SplineSet
235 147 m 0
 239 178 268 203 299 203 c 0
 330 203 352 178 348 147 c 0
 344 116 314 91 283 91 c 0
 252 91 231 116 235 147 c 0
291 546 m 0
 295 577 324 602 355 602 c 0
 386 602 408 577 404 546 c 0
 400 515 370 490 339 490 c 0
 308 490 287 515 291 546 c 0
108 384 m 5
 541 384 l 5
 530 309 l 5
 97 309 l 5
 108 384 l 5
EndSplineSet
EndChar

StartChar: multiply
Encoding: 215 215 179
Width: 620
VWidth: 0
Flags: HW
LayerCount: 2
Fore
SplineSet
163 584 m 1
 243 584 l 1
 563 162 l 5
 483 162 l 5
 163 584 l 1
104 162 m 5
 542 584 l 1
 622 584 l 1
 184 162 l 5
 104 162 l 5
EndSplineSet
EndChar

StartChar: ae
Encoding: 230 230 180
Width: 976
VWidth: 0
Flags: HW
LayerCount: 2
Fore
SplineSet
388 238 m 1x9e40
 420 238 l 1
 422 173 l 1
 379 173 l 1
 388 238 l 1x9e40
399 314 m 1xce40
 469 314 l 1xce40
 469 238 l 1
 388 238 l 1x9e40
 399 314 l 1xce40
469 238 m 1x9e40
 456 145 518 65 613 65 c 0
 671 65 732 84 776 126 c 1
 808 68 l 1
 749 20 674 -11 602 -11 c 0
 465 -11 380 101 399 238 c 1x9d40
 469 238 l 1x9e40
399 238 m 0
 418 375 535 487 672 487 c 0
 809 487 894 375 875 238 c 0
 874 231 872 222 872 222 c 1x9d40
 790 222 l 1xad40
 790 222 792 231 793 238 c 0
 806 331 757 411 662 411 c 0
 567 411 482 331 469 238 c 0x9e40
 468 231 467 223 467 216 c 1
 407 216 l 1xce40
 407 223 398 231 399 238 c 0
433 222 m 1xacc0
 443 292 l 1
 835 292 l 1
 825 222 l 1
 433 222 l 1xacc0
267 222 m 1
 277 292 l 1
 433 292 l 1
 423 222 l 1xad40
 267 222 l 1
137 141 m 1
 61 141 l 1
 75 240 156 292 277 292 c 1
 267 222 l 1
 201 222 144 193 137 141 c 1
137 141 m 1
 130 89 168 65 234 65 c 1
 223 -11 l 1
 102 -11 47 42 61 141 c 1
 137 141 l 1
382 195 m 1x8e40
 433 173 l 1
 420 79 328 -11 223 -11 c 1
 234 65 l 1
 300 65 371 116 382 195 c 1x8e40
289 411 m 1
 238 411 184 402 142 369 c 1
 154 454 l 1
 200 476 250 487 299 487 c 1
 289 411 l 1
289 411 m 1
 299 487 l 1
 420 487 475 435 458 314 c 5
 399 314 l 1xce40
 407 369 368 411 289 411 c 1
EndSplineSet
EndChar

StartChar: Eth
Encoding: 208 208 181
Width: 722
VWidth: 0
Flags: HW
LayerCount: 2
Fore
SplineSet
46 330 m 5
 56 395 l 5
 435 395 l 5
 425 330 l 5
 46 330 l 5
265 730 m 1
 409 730 l 1
 397 649 l 1
 253 649 l 1
 265 730 l 1
162 0 m 1
 173 81 l 1
 317 81 l 1
 306 0 l 1
 162 0 l 1
81 0 m 1
 184 730 l 1
 265 730 l 1
 162 0 l 1
 81 0 l 1
397 649 m 1
 409 730 l 1
 617 730 762 574 733 366 c 0
 704 158 514 0 306 0 c 1
 317 81 l 1
 480 81 624 201 647 366 c 0
 670 531 560 649 397 649 c 1
EndSplineSet
EndChar

StartChar: eth
Encoding: 240 240 182
Width: 617
VWidth: 0
Flags: HW
LayerCount: 2
Fore
SplineSet
236 622 m 1
 677 676 l 1
 669 623 l 5
 229 569 l 5
 236 622 l 1
580 292 m 1
 556 236 518 238 491 238 c 1
 598 617 236 811 236 811 c 1
 350 811 l 1
 350 811 634 666 580 292 c 1
491 238 m 0
 504 331 443 411 348 411 c 0
 253 411 168 331 155 238 c 0
 142 145 204 65 299 65 c 0
 394 65 478 145 491 238 c 0
580 292 m 0
 553 101 425 -11 288 -11 c 0
 151 -11 55 101 74 238 c 0
 93 375 221 487 358 487 c 0
 486 487 542 390 534 266 c 0
 534 257 581 302 580 292 c 0
EndSplineSet
EndChar

